<svg width="13" height="13" viewBox="0 0 13 13" fill="none" xmlns="http://www.w3.org/2000/svg">
<g clip-path="url(#clip0)">
<path d="M10.6784 6.49994C10.422 6.49994 10.2141 6.70781 10.2141 6.96423V11.607C10.2141 11.8634 10.0063 12.0713 9.74984 12.0713H1.39284C1.13641 12.0713 0.92855 11.8634 0.92855 11.607V2.32143C0.92855 2.065 1.13641 1.85714 1.39284 1.85714H6.96419C7.22062 1.85714 7.42848 1.64927 7.42848 1.39285C7.42848 1.13643 7.22062 0.928589 6.96419 0.928589H1.39284C0.623595 0.928589 0 1.55218 0 2.32143V11.607C0 12.3763 0.623595 12.9999 1.39284 12.9999H9.74987C10.5191 12.9999 11.1427 12.3763 11.1427 11.607V6.96421C11.1427 6.70781 10.9348 6.49994 10.6784 6.49994Z" fill="#F3A11A"/>
<path d="M12.4795 0.520757C12.1462 0.187347 11.694 7.50079e-05 11.2226 0.000129416C10.7508 -0.00123078 10.2982 0.186367 9.96577 0.521057L3.85025 6.63605C3.79952 6.68717 3.76124 6.7493 3.73836 6.81759L2.80981 9.60326C2.72877 9.84655 2.8603 10.1094 3.10359 10.1905C3.15078 10.2062 3.20021 10.2142 3.24994 10.2143C3.29978 10.2142 3.34932 10.2062 3.39665 10.1906L6.18233 9.26205C6.25075 9.23919 6.31291 9.20073 6.36386 9.14969L12.4794 3.03421C13.1735 2.34018 13.1735 1.21486 12.4795 0.520757Z" fill="#F3A11A"/>
</g>
<defs>
<clipPath id="clip0">
<rect width="13" height="13" fill="white"/>
</clipPath>
</defs>
</svg>
