<svg width="12" height="9" viewBox="0 0 12 9" fill="none" xmlns="http://www.w3.org/2000/svg">
<path d="M7.875 4.5C7.875 5.02215 7.67746 5.5229 7.32583 5.89212C6.97419 6.26133 6.49728 6.46875 6 6.46875C5.50272 6.46875 5.02581 6.26133 4.67417 5.89212C4.32254 5.5229 4.125 5.02215 4.125 4.5C4.125 3.97786 4.32254 3.4771 4.67417 3.10788C5.02581 2.73867 5.50272 2.53125 6 2.53125C6.49728 2.53125 6.97419 2.73867 7.32583 3.10788C7.67746 3.4771 7.875 3.97786 7.875 4.5Z" fill="white"/>
<path fill-rule="evenodd" clip-rule="evenodd" d="M0 4.5002C0 4.5002 2.25 0.168945 6 0.168945C9.75 0.168945 12 4.5002 12 4.5002C12 4.5002 9.75 8.83145 6 8.83145C2.25 8.83145 0 4.5002 0 4.5002ZM6 7.25645C6.69619 7.25645 7.36387 6.96606 7.85616 6.44916C8.34844 5.93226 8.625 5.2312 8.625 4.5002C8.625 3.76919 8.34844 3.06813 7.85616 2.55123C7.36387 2.03434 6.69619 1.74395 6 1.74395C5.30381 1.74395 4.63613 2.03434 4.14384 2.55123C3.65156 3.06813 3.375 3.76919 3.375 4.5002C3.375 5.2312 3.65156 5.93226 4.14384 6.44916C4.63613 6.96606 5.30381 7.25645 6 7.25645Z" fill="white"/>
</svg>
