<svg width="12" height="9" viewBox="0 0 12 9" fill="none" xmlns="http://www.w3.org/2000/svg">
<path d="M7.875 4.5C7.875 5.02215 7.67746 5.5229 7.32583 5.89212C6.97419 6.26133 6.49728 6.46875 6 6.46875C5.50272 6.46875 5.02581 6.26133 4.67417 5.89212C4.32254 5.5229 4.125 5.02215 4.125 4.5C4.125 3.97786 4.32254 3.4771 4.67417 3.10788C5.02581 2.73867 5.50272 2.53125 6 2.53125C6.49728 2.53125 6.97419 2.73867 7.32583 3.10788C7.67746 3.4771 7.875 3.97786 7.875 4.5Z" fill="#929197"/>
<path fill-rule="evenodd" clip-rule="evenodd" d="M0 4.49995C0 4.49995 2.25 0.168701 6 0.168701C9.75 0.168701 12 4.49995 12 4.49995C12 4.49995 9.75 8.8312 6 8.8312C2.25 8.8312 0 4.49995 0 4.49995ZM6 7.2562C6.69619 7.2562 7.36387 6.96581 7.85616 6.44891C8.34844 5.93202 8.625 5.23095 8.625 4.49995C8.625 3.76895 8.34844 3.06789 7.85616 2.55099C7.36387 2.03409 6.69619 1.7437 6 1.7437C5.30381 1.7437 4.63613 2.03409 4.14384 2.55099C3.65156 3.06789 3.375 3.76895 3.375 4.49995C3.375 5.23095 3.65156 5.93202 4.14384 6.44891C4.63613 6.96581 5.30381 7.2562 6 7.2562Z" fill="#929197"/>
</svg>
