<svg width="26" height="26" viewBox="0 0 26 26" fill="none" xmlns="http://www.w3.org/2000/svg">
<path d="M5.44362 22.5063C5.4065 22.6652 5.40583 22.8304 5.44166 22.9896C5.47749 23.1488 5.54889 23.2978 5.65051 23.4255C5.75213 23.5532 5.88133 23.6562 6.02842 23.7268C6.17552 23.7974 6.33669 23.8339 6.49987 23.8334C6.71386 23.8334 6.92307 23.7701 7.10112 23.6514L12.9999 19.7189L18.8986 23.6514C19.0831 23.7739 19.3008 23.8369 19.5222 23.8321C19.7437 23.8272 19.9583 23.7547 20.1373 23.6242C20.3163 23.4937 20.451 23.3115 20.5234 23.1022C20.5957 22.8928 20.6022 22.6663 20.542 22.4532L18.5606 15.5198L23.4746 11.0977C23.632 10.956 23.7444 10.7712 23.7979 10.5663C23.8514 10.3614 23.8437 10.1453 23.7757 9.94474C23.7077 9.74417 23.5824 9.56793 23.4153 9.43783C23.2481 9.30772 23.0466 9.22944 22.8354 9.21268L16.6594 8.72085L13.9868 2.80477C13.9017 2.61422 13.7632 2.45238 13.5882 2.33878C13.4131 2.22518 13.2089 2.16467 13.0002 2.16455C12.7915 2.16444 12.5873 2.22472 12.4121 2.33813C12.2369 2.45154 12.0983 2.61323 12.0129 2.80368L9.34036 8.72085L3.16428 9.2116C2.95678 9.22804 2.7584 9.30391 2.59288 9.43014C2.42737 9.55637 2.30172 9.72761 2.23098 9.92338C2.16024 10.1191 2.1474 10.3312 2.19399 10.534C2.24058 10.7369 2.34463 10.9221 2.4937 11.0673L7.05887 15.5166L5.44362 22.5063ZM12.9999 5.88143L15.212 10.7792L15.849 10.8301H15.8501L20.1531 11.1713L16.6095 14.3607L16.6084 14.3628L16.1069 14.8135L16.2921 15.4603V15.4635L17.6495 20.2139L12.9999 17.1145V5.88143Z" fill="#8356AA"/>
</svg>
