<svg width="43" height="30" viewBox="0 0 43 30" fill="none" xmlns="http://www.w3.org/2000/svg">
<g clip-path="url(#clip0)">
<path d="M0.500001 2L0.5 30" stroke="#1CB646"/>
</g>
<path d="M25.5 20.0001H30.5C30.8315 20.0001 31.1495 19.8684 31.3839 19.6339C31.6183 19.3995 31.75 19.0816 31.75 18.7501V12.5001H33.7325C33.9797 12.5 34.2213 12.4267 34.4268 12.2893C34.6323 12.152 34.7925 11.9567 34.8871 11.7284C34.9817 11.5 35.0064 11.2487 34.9582 11.0063C34.91 10.7638 34.791 10.5411 34.6163 10.3663L28.8838 4.63381C28.6493 4.39947 28.3315 4.26782 28 4.26782C27.6685 4.26782 27.3507 4.39947 27.1163 4.63381L21.3837 10.3663C21.209 10.5411 21.09 10.7638 21.0418 11.0063C20.9936 11.2487 21.0183 11.5 21.1129 11.7284C21.2075 11.9567 21.3677 12.152 21.5732 12.2893C21.7787 12.4267 22.0203 12.5 22.2675 12.5001H24.25V18.7501C24.25 19.0816 24.3817 19.3995 24.6161 19.6339C24.8505 19.8684 25.1685 20.0001 25.5 20.0001ZM20.5 22.5001H35.5C35.8315 22.5001 36.1495 22.6318 36.3839 22.8662C36.6183 23.1006 36.75 23.4185 36.75 23.7501C36.75 24.0816 36.6183 24.3995 36.3839 24.6339C36.1495 24.8684 35.8315 25.0001 35.5 25.0001H20.5C20.1685 25.0001 19.8505 24.8684 19.6161 24.6339C19.3817 24.3995 19.25 24.0816 19.25 23.7501C19.25 23.4185 19.3817 23.1006 19.6161 22.8662C19.8505 22.6318 20.1685 22.5001 20.5 22.5001Z" fill="#1CB646"/>
<defs>
<clipPath id="clip0">
<rect width="1" height="28" fill="white" transform="translate(0 2)"/>
</clipPath>
</defs>
</svg>
