<svg width="30" height="30" viewBox="0 0 30 30" fill="none" xmlns="http://www.w3.org/2000/svg">
<path d="M12.5 20.0001H17.5C17.8315 20.0001 18.1495 19.8684 18.3839 19.6339C18.6183 19.3995 18.75 19.0816 18.75 18.7501V12.5001H20.7325C20.9797 12.5 21.2213 12.4267 21.4268 12.2893C21.6323 12.152 21.7925 11.9567 21.8871 11.7284C21.9817 11.5 22.0064 11.2487 21.9582 11.0063C21.91 10.7638 21.791 10.5411 21.6163 10.3663L15.8838 4.63381C15.6493 4.39947 15.3315 4.26782 15 4.26782C14.6685 4.26782 14.3507 4.39947 14.1163 4.63381L8.38375 10.3663C8.20899 10.5411 8.08998 10.7638 8.04177 11.0063C7.99356 11.2487 8.01832 11.5 8.1129 11.7284C8.20749 11.9567 8.36766 12.152 8.57318 12.2893C8.77869 12.4267 9.02031 12.5 9.2675 12.5001H11.25V18.7501C11.25 19.0816 11.3817 19.3995 11.6161 19.6339C11.8505 19.8684 12.1685 20.0001 12.5 20.0001ZM7.5 22.5001H22.5C22.8315 22.5001 23.1495 22.6318 23.3839 22.8662C23.6183 23.1006 23.75 23.4185 23.75 23.7501C23.75 24.0816 23.6183 24.3995 23.3839 24.6339C23.1495 24.8684 22.8315 25.0001 22.5 25.0001H7.5C7.16848 25.0001 6.85054 24.8684 6.61612 24.6339C6.3817 24.3995 6.25 24.0816 6.25 23.7501C6.25 23.4185 6.3817 23.1006 6.61612 22.8662C6.85054 22.6318 7.16848 22.5001 7.5 22.5001Z" fill="#1CB646"/>
</svg>
