<svg width="25" height="25" viewBox="0 0 25 25" fill="none" xmlns="http://www.w3.org/2000/svg">
<path d="M22.2656 3.125H20.3125V2.34375C20.3125 1.92935 20.1479 1.53192 19.8549 1.2389C19.5618 0.94587 19.1644 0.78125 18.75 0.78125C18.3356 0.78125 17.9382 0.94587 17.6451 1.2389C17.3521 1.53192 17.1875 1.92935 17.1875 2.34375V3.125H14.0625V2.34375C14.0625 1.92935 13.8979 1.53192 13.6049 1.2389C13.3118 0.94587 12.9144 0.78125 12.5 0.78125C12.0856 0.78125 11.6882 0.94587 11.3951 1.2389C11.1021 1.53192 10.9375 1.92935 10.9375 2.34375V3.125H7.8125V2.34375C7.8125 1.92935 7.64788 1.53192 7.35485 1.2389C7.06183 0.94587 6.6644 0.78125 6.25 0.78125C5.8356 0.78125 5.43817 0.94587 5.14515 1.2389C4.85212 1.53192 4.6875 1.92935 4.6875 2.34375V3.125H2.73438C2.21637 3.125 1.71959 3.33078 1.35331 3.69706C0.987025 4.06334 0.78125 4.56012 0.78125 5.07812V20.7031C0.78125 21.2211 0.987025 21.7179 1.35331 22.0842C1.71959 22.4505 2.21637 22.6562 2.73438 22.6562H13.6719C13.7755 22.6562 13.8748 22.6151 13.9481 22.5418C14.0213 22.4686 14.0625 22.3692 14.0625 22.2656C14.0625 22.162 14.0213 22.0627 13.9481 21.9894C13.8748 21.9162 13.7755 21.875 13.6719 21.875H2.73438C2.42386 21.8741 2.12633 21.7503 1.90676 21.5307C1.68719 21.3112 1.56343 21.0136 1.5625 20.7031V8.59375H23.4375V15.2344C23.4375 15.338 23.4787 15.4373 23.5519 15.5106C23.6252 15.5838 23.7245 15.625 23.8281 15.625C23.9317 15.625 24.0311 15.5838 24.1043 15.5106C24.1776 15.4373 24.2188 15.338 24.2188 15.2344V5.07812C24.2188 4.56012 24.013 4.06334 23.6467 3.69706C23.2804 3.33078 22.7836 3.125 22.2656 3.125ZM17.9688 2.34375C17.9688 2.13655 18.0511 1.93784 18.1976 1.79132C18.3441 1.64481 18.5428 1.5625 18.75 1.5625C18.9572 1.5625 19.1559 1.64481 19.3024 1.79132C19.4489 1.93784 19.5312 2.13655 19.5312 2.34375V4.6875C19.5312 4.8947 19.4489 5.09341 19.3024 5.23993C19.1559 5.38644 18.9572 5.46875 18.75 5.46875C18.5428 5.46875 18.3441 5.38644 18.1976 5.23993C18.0511 5.09341 17.9688 4.8947 17.9688 4.6875V2.34375ZM11.7188 2.34375C11.7188 2.13655 11.8011 1.93784 11.9476 1.79132C12.0941 1.64481 12.2928 1.5625 12.5 1.5625C12.7072 1.5625 12.9059 1.64481 13.0524 1.79132C13.1989 1.93784 13.2812 2.13655 13.2812 2.34375V4.6875C13.2812 4.8947 13.1989 5.09341 13.0524 5.23993C12.9059 5.38644 12.7072 5.46875 12.5 5.46875C12.2928 5.46875 12.0941 5.38644 11.9476 5.23993C11.8011 5.09341 11.7188 4.8947 11.7188 4.6875V2.34375ZM5.46875 2.34375C5.46875 2.13655 5.55106 1.93784 5.69757 1.79132C5.84409 1.64481 6.0428 1.5625 6.25 1.5625C6.4572 1.5625 6.65591 1.64481 6.80243 1.79132C6.94894 1.93784 7.03125 2.13655 7.03125 2.34375V4.6875C7.03125 4.8947 6.94894 5.09341 6.80243 5.23993C6.65591 5.38644 6.4572 5.46875 6.25 5.46875C6.0428 5.46875 5.84409 5.38644 5.69757 5.23993C5.55106 5.09341 5.46875 4.8947 5.46875 4.6875V2.34375ZM23.4375 7.8125H1.5625V5.07812C1.56343 4.76761 1.68719 4.47008 1.90676 4.25051C2.12633 4.03094 2.42386 3.90718 2.73438 3.90625H4.6875V4.6875C4.6875 5.1019 4.85212 5.49933 5.14515 5.79235C5.43817 6.08538 5.8356 6.25 6.25 6.25C6.6644 6.25 7.06183 6.08538 7.35485 5.79235C7.64788 5.49933 7.8125 5.1019 7.8125 4.6875V3.90625H10.9375V4.6875C10.9375 5.1019 11.1021 5.49933 11.3951 5.79235C11.6882 6.08538 12.0856 6.25 12.5 6.25C12.9144 6.25 13.3118 6.08538 13.6049 5.79235C13.8979 5.49933 14.0625 5.1019 14.0625 4.6875V3.90625H17.1875V4.6875C17.1875 5.1019 17.3521 5.49933 17.6451 5.79235C17.9382 6.08538 18.3356 6.25 18.75 6.25C19.1644 6.25 19.5618 6.08538 19.8549 5.79235C20.1479 5.49933 20.3125 5.1019 20.3125 4.6875V3.90625H22.2656C22.5761 3.90718 22.8737 4.03094 23.0932 4.25051C23.3128 4.47008 23.4366 4.76761 23.4375 5.07812V7.8125Z" fill="#373840"/>
<path d="M11.7188 11.3281C11.7188 11.1209 11.6364 10.9222 11.4899 10.7757C11.3434 10.6292 11.1447 10.5469 10.9375 10.5469H9.375C9.1678 10.5469 8.96909 10.6292 8.82257 10.7757C8.67606 10.9222 8.59375 11.1209 8.59375 11.3281V12.5C8.59375 12.7072 8.67606 12.9059 8.82257 13.0524C8.96909 13.1989 9.1678 13.2812 9.375 13.2812H10.9375C11.1447 13.2812 11.3434 13.1989 11.4899 13.0524C11.6364 12.9059 11.7188 12.7072 11.7188 12.5V11.3281ZM9.375 12.5V11.3281H10.9375V12.5H9.375Z" fill="#373840"/>
<path d="M7.03125 11.3281C7.03125 11.1209 6.94894 10.9222 6.80243 10.7757C6.65591 10.6292 6.4572 10.5469 6.25 10.5469H4.6875C4.4803 10.5469 4.28159 10.6292 4.13507 10.7757C3.98856 10.9222 3.90625 11.1209 3.90625 11.3281V12.5C3.90625 12.7072 3.98856 12.9059 4.13507 13.0524C4.28159 13.1989 4.4803 13.2812 4.6875 13.2812H6.25C6.4572 13.2812 6.65591 13.1989 6.80243 13.0524C6.94894 12.9059 7.03125 12.7072 7.03125 12.5V11.3281ZM4.6875 12.5V11.3281H6.25V12.5H4.6875Z" fill="#373840"/>
<path d="M20.3125 13.2812C20.5197 13.2812 20.7184 13.1989 20.8649 13.0524C21.0114 12.9059 21.0938 12.7072 21.0938 12.5V11.3281C21.0938 11.1209 21.0114 10.9222 20.8649 10.7757C20.7184 10.6292 20.5197 10.5469 20.3125 10.5469H18.75C18.5428 10.5469 18.3441 10.6292 18.1976 10.7757C18.0511 10.9222 17.9688 11.1209 17.9688 11.3281V12.5C17.9688 12.7072 18.0511 12.9059 18.1976 13.0524C18.3441 13.1989 18.5428 13.2812 18.75 13.2812H20.3125ZM18.75 11.3281H20.3125V12.5H18.75V11.3281Z" fill="#373840"/>
<path d="M11.7188 14.8438C11.7188 14.6365 11.6364 14.4378 11.4899 14.2913C11.3434 14.1448 11.1447 14.0625 10.9375 14.0625H9.375C9.1678 14.0625 8.96909 14.1448 8.82257 14.2913C8.67606 14.4378 8.59375 14.6365 8.59375 14.8438V16.0156C8.59375 16.2228 8.67606 16.4215 8.82257 16.5681C8.96909 16.7146 9.1678 16.7969 9.375 16.7969H10.9375C11.1447 16.7969 11.3434 16.7146 11.4899 16.5681C11.6364 16.4215 11.7188 16.2228 11.7188 16.0156V14.8438ZM9.375 16.0156V14.8438H10.9375V16.0156H9.375Z" fill="#373840"/>
<path d="M7.03125 14.8438C7.03125 14.6365 6.94894 14.4378 6.80243 14.2913C6.65591 14.1448 6.4572 14.0625 6.25 14.0625H4.6875C4.4803 14.0625 4.28159 14.1448 4.13507 14.2913C3.98856 14.4378 3.90625 14.6365 3.90625 14.8438V16.0156C3.90625 16.2228 3.98856 16.4215 4.13507 16.5681C4.28159 16.7146 4.4803 16.7969 4.6875 16.7969H6.25C6.4572 16.7969 6.65591 16.7146 6.80243 16.5681C6.94894 16.4215 7.03125 16.2228 7.03125 16.0156V14.8438ZM4.6875 16.0156V14.8438H6.25V16.0156H4.6875Z" fill="#373840"/>
<path d="M10.9375 17.5781H9.375C9.1678 17.5781 8.96909 17.6604 8.82257 17.8069C8.67606 17.9535 8.59375 18.1522 8.59375 18.3594V19.5312C8.59375 19.7385 8.67606 19.9372 8.82257 20.0837C8.96909 20.2302 9.1678 20.3125 9.375 20.3125H10.9375C11.1447 20.3125 11.3434 20.2302 11.4899 20.0837C11.6364 19.9372 11.7188 19.7385 11.7188 19.5312V18.3594C11.7188 18.1522 11.6364 17.9535 11.4899 17.8069C11.3434 17.6604 11.1447 17.5781 10.9375 17.5781ZM9.375 19.5312V18.3594H10.9375V19.5312H9.375Z" fill="#373840"/>
<path d="M14.0625 13.2812H15.625C15.8322 13.2812 16.0309 13.1989 16.1774 13.0524C16.3239 12.9059 16.4062 12.7072 16.4062 12.5V11.3281C16.4062 11.1209 16.3239 10.9222 16.1774 10.7757C16.0309 10.6292 15.8322 10.5469 15.625 10.5469H14.0625C13.8553 10.5469 13.6566 10.6292 13.5101 10.7757C13.3636 10.9222 13.2812 11.1209 13.2812 11.3281V12.5C13.2812 12.7072 13.3636 12.9059 13.5101 13.0524C13.6566 13.1989 13.8553 13.2812 14.0625 13.2812ZM14.0625 11.3281H15.625V12.5H14.0625V11.3281Z" fill="#373840"/>
<path d="M13.2812 16.0156C13.2812 16.2228 13.3636 16.4215 13.5101 16.5681C13.6566 16.7146 13.8553 16.7969 14.0625 16.7969C14.1661 16.7969 14.2655 16.7557 14.3387 16.6825C14.412 16.6092 14.4531 16.5099 14.4531 16.4062C14.4531 16.3026 14.412 16.2033 14.3387 16.13C14.2655 16.0568 14.1661 16.0156 14.0625 16.0156V14.8438H15.625C15.7286 14.8438 15.828 14.8026 15.9012 14.7293C15.9745 14.6561 16.0156 14.5567 16.0156 14.4531C16.0156 14.3495 15.9745 14.2502 15.9012 14.1769C15.828 14.1037 15.7286 14.0625 15.625 14.0625H14.0625C13.8553 14.0625 13.6566 14.1448 13.5101 14.2913C13.3636 14.4378 13.2812 14.6365 13.2812 14.8438V16.0156Z" fill="#373840"/>
<path d="M6.25 17.5781H4.6875C4.4803 17.5781 4.28159 17.6604 4.13507 17.8069C3.98856 17.9535 3.90625 18.1522 3.90625 18.3594V19.5312C3.90625 19.7385 3.98856 19.9372 4.13507 20.0837C4.28159 20.2302 4.4803 20.3125 4.6875 20.3125H6.25C6.4572 20.3125 6.65591 20.2302 6.80243 20.0837C6.94894 19.9372 7.03125 19.7385 7.03125 19.5312V18.3594C7.03125 18.1522 6.94894 17.9535 6.80243 17.8069C6.65591 17.6604 6.4572 17.5781 6.25 17.5781ZM4.6875 19.5312V18.3594H6.25V19.5312H4.6875Z" fill="#373840"/>
<path d="M19.1406 14.0625C18.1363 14.0625 17.1545 14.3603 16.3194 14.9183C15.4843 15.4763 14.8334 16.2694 14.4491 17.1973C14.0647 18.1252 13.9641 19.1463 14.1601 20.1313C14.356 21.1164 14.8397 22.0212 15.5498 22.7314C16.26 23.4416 17.1649 23.9252 18.1499 24.1212C19.135 24.3171 20.156 24.2165 21.0839 23.8322C22.0118 23.4478 22.8049 22.797 23.3629 21.9619C23.9209 21.1268 24.2187 20.145 24.2187 19.1406C24.2172 17.7943 23.6817 16.5036 22.7297 15.5516C21.7777 14.5996 20.4869 14.0641 19.1406 14.0625ZM19.1406 23.4375C18.2908 23.4375 17.46 23.1855 16.7534 22.7133C16.0468 22.2412 15.4961 21.5701 15.1708 20.785C14.8456 19.9998 14.7605 19.1359 14.9263 18.3023C15.0921 17.4688 15.5013 16.7032 16.1023 16.1023C16.7032 15.5013 17.4688 15.0921 18.3023 14.9263C19.1359 14.7605 19.9998 14.8456 20.785 15.1708C21.5701 15.496 22.2412 16.0468 22.7133 16.7534C23.1855 17.46 23.4375 18.2908 23.4375 19.1406C23.4361 20.2798 22.983 21.372 22.1775 22.1775C21.372 22.983 20.2798 23.4361 19.1406 23.4375Z" fill="#373840"/>
<path d="M21.3975 17.5032L18.3593 20.5415L16.9784 19.1602C16.9047 19.0891 16.8061 19.0497 16.7036 19.0506C16.6012 19.0515 16.5032 19.0926 16.4308 19.165C16.3584 19.2374 16.3173 19.3354 16.3164 19.4378C16.3155 19.5402 16.3549 19.6389 16.4261 19.7126L18.0831 21.37C18.1563 21.4432 18.2557 21.4844 18.3593 21.4844C18.4628 21.4844 18.5622 21.4432 18.6354 21.37L21.9499 18.0556C22.021 17.9819 22.0604 17.8832 22.0595 17.7808C22.0586 17.6784 22.0175 17.5804 21.9451 17.508C21.8727 17.4355 21.7747 17.3945 21.6723 17.3936C21.5699 17.3927 21.4712 17.4321 21.3975 17.5032Z" fill="#373840"/>
</svg>
