<svg width="37" height="28" viewBox="0 0 37 28" fill="none" xmlns="http://www.w3.org/2000/svg">
<g clip-path="url(#clip0)">
<path d="M0.500001 0L0.5 28" stroke="white"/>
</g>
<g clip-path="url(#clip1)">
<path d="M25.5 18.0001H30.5C30.8315 18.0001 31.1495 17.8684 31.3839 17.6339C31.6183 17.3995 31.75 17.0816 31.75 16.7501V10.5001H33.7325C33.9797 10.5 34.2213 10.4267 34.4268 10.2893C34.6323 10.152 34.7925 9.95675 34.8871 9.72837C34.9817 9.5 35.0064 9.24871 34.9582 9.00627C34.91 8.76382 34.791 8.54112 34.6163 8.36631L28.8837 2.63381C28.6493 2.39947 28.3315 2.26782 28 2.26782C27.6686 2.26782 27.3507 2.39947 27.1163 2.63381L21.3837 8.36631C21.209 8.54112 21.09 8.76382 21.0418 9.00627C20.9936 9.24871 21.0183 9.5 21.1129 9.72837C21.2075 9.95675 21.3677 10.152 21.5732 10.2893C21.7787 10.4267 22.0203 10.5 22.2675 10.5001H24.25V16.7501C24.25 17.0816 24.3817 17.3995 24.6161 17.6339C24.8505 17.8684 25.1685 18.0001 25.5 18.0001ZM20.5 20.5001H35.5C35.8315 20.5001 36.1495 20.6318 36.3839 20.8662C36.6183 21.1006 36.75 21.4185 36.75 21.7501C36.75 22.0816 36.6183 22.3995 36.3839 22.6339C36.1495 22.8684 35.8315 23.0001 35.5 23.0001H20.5C20.1685 23.0001 19.8505 22.8684 19.6161 22.6339C19.3817 22.3995 19.25 22.0816 19.25 21.7501C19.25 21.4185 19.3817 21.1006 19.6161 20.8662C19.8505 20.6318 20.1685 20.5001 20.5 20.5001Z" fill="white"/>
</g>
<defs>
<clipPath id="clip0">
<rect width="1" height="28" fill="white"/>
</clipPath>
<clipPath id="clip1">
<rect width="18" height="21" fill="white" transform="translate(19 2)"/>
</clipPath>
</defs>
</svg>
