<svg width="111" height="14" viewBox="0 0 111 14" fill="none" xmlns="http://www.w3.org/2000/svg">
<path d="M3.876 3.344H0.068V1.1H10.438V3.344H6.63V13H3.876V3.344ZM21.1338 10.79V13H11.9198V1.1H20.9128V3.31H14.6568V5.894H20.1818V8.036H14.6568V10.79H21.1338ZM28.9869 13.204C27.7742 13.204 26.6749 12.9433 25.6889 12.422C24.7142 11.8893 23.9435 11.1583 23.3769 10.229C22.8215 9.28833 22.5439 8.22867 22.5439 7.05C22.5439 5.87133 22.8215 4.81733 23.3769 3.888C23.9435 2.94733 24.7142 2.21633 25.6889 1.695C26.6749 1.16233 27.7799 0.896 29.0039 0.896C30.0352 0.896 30.9645 1.07733 31.7919 1.44C32.6305 1.80267 33.3332 2.324 33.8999 3.004L32.1319 4.636C31.3272 3.70667 30.3299 3.242 29.1399 3.242C28.4032 3.242 27.7459 3.40633 27.1679 3.735C26.5899 4.05233 26.1365 4.5 25.8079 5.078C25.4905 5.656 25.3319 6.31333 25.3319 7.05C25.3319 7.78667 25.4905 8.444 25.8079 9.022C26.1365 9.6 26.5899 10.0533 27.1679 10.382C27.7459 10.6993 28.4032 10.858 29.1399 10.858C30.3299 10.858 31.3272 10.3877 32.1319 9.447L33.8999 11.079C33.3332 11.7703 32.6305 12.2973 31.7919 12.66C30.9532 13.0227 30.0182 13.204 28.9869 13.204ZM46.6736 1.1V13H43.9196V8.121H38.5136V13H35.7596V1.1H38.5136V5.792H43.9196V1.1H46.6736Z" fill="white"/>
<path d="M57.0711 13L54.7761 9.685H54.6401H52.2431V13H49.4891V1.1H54.6401C55.6941 1.1 56.6065 1.27567 57.3771 1.627C58.1591 1.97833 58.7598 2.477 59.1791 3.123C59.5985 3.769 59.8081 4.534 59.8081 5.418C59.8081 6.302 59.5928 7.067 59.1621 7.713C58.7428 8.34767 58.1421 8.835 57.3601 9.175L60.0291 13H57.0711ZM57.0201 5.418C57.0201 4.74933 56.8048 4.23933 56.3741 3.888C55.9435 3.52533 55.3145 3.344 54.4871 3.344H52.2431V7.492H54.4871C55.3145 7.492 55.9435 7.31067 56.3741 6.948C56.8048 6.58533 57.0201 6.07533 57.0201 5.418ZM67.7531 13.204C66.5178 13.204 65.4014 12.9377 64.4041 12.405C63.4181 11.8723 62.6418 11.1413 62.0751 10.212C61.5198 9.27133 61.2421 8.21733 61.2421 7.05C61.2421 5.88267 61.5198 4.83433 62.0751 3.905C62.6418 2.96433 63.4181 2.22767 64.4041 1.695C65.4014 1.16233 66.5178 0.896 67.7531 0.896C68.9884 0.896 70.0991 1.16233 71.0851 1.695C72.0711 2.22767 72.8474 2.96433 73.4141 3.905C73.9808 4.83433 74.2641 5.88267 74.2641 7.05C74.2641 8.21733 73.9808 9.27133 73.4141 10.212C72.8474 11.1413 72.0711 11.8723 71.0851 12.405C70.0991 12.9377 68.9884 13.204 67.7531 13.204ZM67.7531 10.858C68.4558 10.858 69.0904 10.6993 69.6571 10.382C70.2238 10.0533 70.6658 9.6 70.9831 9.022C71.3118 8.444 71.4761 7.78667 71.4761 7.05C71.4761 6.31333 71.3118 5.656 70.9831 5.078C70.6658 4.5 70.2238 4.05233 69.6571 3.735C69.0904 3.40633 68.4558 3.242 67.7531 3.242C67.0504 3.242 66.4158 3.40633 65.8491 3.735C65.2824 4.05233 64.8348 4.5 64.5061 5.078C64.1888 5.656 64.0301 6.31333 64.0301 7.05C64.0301 7.78667 64.1888 8.444 64.5061 9.022C64.8348 9.6 65.2824 10.0533 65.8491 10.382C66.4158 10.6993 67.0504 10.858 67.7531 10.858ZM82.0289 13.204C80.8162 13.204 79.7169 12.9433 78.7309 12.422C77.7562 11.8893 76.9855 11.1583 76.4189 10.229C75.8635 9.28833 75.5859 8.22867 75.5859 7.05C75.5859 5.87133 75.8635 4.81733 76.4189 3.888C76.9855 2.94733 77.7562 2.21633 78.7309 1.695C79.7169 1.16233 80.8219 0.896 82.0459 0.896C83.0772 0.896 84.0065 1.07733 84.8339 1.44C85.6725 1.80267 86.3752 2.324 86.9419 3.004L85.1739 4.636C84.3692 3.70667 83.3719 3.242 82.1819 3.242C81.4452 3.242 80.7879 3.40633 80.2099 3.735C79.6319 4.05233 79.1785 4.5 78.8499 5.078C78.5325 5.656 78.3739 6.31333 78.3739 7.05C78.3739 7.78667 78.5325 8.444 78.8499 9.022C79.1785 9.6 79.6319 10.0533 80.2099 10.382C80.7879 10.6993 81.4452 10.858 82.1819 10.858C83.3719 10.858 84.3692 10.3877 85.1739 9.447L86.9419 11.079C86.3752 11.7703 85.6725 12.2973 84.8339 12.66C83.9952 13.0227 83.0602 13.204 82.0289 13.204ZM93.1366 8.325L91.5386 9.991V13H88.8016V1.1H91.5386V6.659L96.8086 1.1H99.8686L94.9386 6.404L100.158 13H96.9446L93.1366 8.325ZM105.047 13.204C104.106 13.204 103.194 13.0793 102.31 12.83C101.437 12.5693 100.734 12.235 100.202 11.827L101.137 9.753C101.647 10.127 102.253 10.4273 102.956 10.654C103.658 10.8807 104.361 10.994 105.064 10.994C105.846 10.994 106.424 10.8807 106.798 10.654C107.172 10.416 107.359 10.1043 107.359 9.719C107.359 9.43567 107.245 9.20333 107.019 9.022C106.803 8.82933 106.52 8.67633 106.169 8.563C105.829 8.44967 105.364 8.325 104.775 8.189C103.868 7.97367 103.126 7.75833 102.548 7.543C101.97 7.32767 101.471 6.982 101.052 6.506C100.644 6.03 100.44 5.39533 100.44 4.602C100.44 3.91067 100.627 3.28733 101.001 2.732C101.375 2.16533 101.936 1.71767 102.684 1.389C103.443 1.06033 104.367 0.896 105.455 0.896C106.214 0.896 106.956 0.986666 107.682 1.168C108.407 1.34933 109.042 1.61 109.586 1.95L108.736 4.041C107.636 3.41767 106.537 3.106 105.438 3.106C104.667 3.106 104.095 3.23067 103.721 3.48C103.358 3.72933 103.177 4.058 103.177 4.466C103.177 4.874 103.386 5.18 103.806 5.384C104.236 5.57667 104.888 5.76933 105.761 5.962C106.667 6.17733 107.41 6.39267 107.988 6.608C108.566 6.82333 109.059 7.16333 109.467 7.628C109.886 8.09267 110.096 8.72167 110.096 9.515C110.096 10.195 109.903 10.8183 109.518 11.385C109.144 11.9403 108.577 12.3823 107.818 12.711C107.058 13.0397 106.135 13.204 105.047 13.204Z" fill="#8356AA"/>
</svg>
