<svg width="146" height="146" viewBox="0 0 146 146" fill="none" xmlns="http://www.w3.org/2000/svg">
<path d="M72.9987 0.000976562C54.2951 0.000976562 35.5929 7.11789 21.3563 21.3545C-7.12094 49.8318 -7.11819 96.1647 21.3591 124.643C35.5943 138.881 54.2965 145.998 72.9987 145.998C91.7009 145.998 110.403 138.879 124.644 124.635C153.12 96.1619 153.117 49.8331 124.647 21.3614C110.405 7.12064 91.7009 0.000976562 72.9987 0.000976562ZM116.676 116.674C104.634 128.717 88.817 134.736 72.9987 134.739C57.1818 134.739 41.3649 128.719 29.3226 116.68C26.3107 113.668 23.6773 110.421 21.4197 106.998C5.61379 83.0307 8.24994 50.3948 29.3226 29.3207C41.3649 17.2798 57.1818 11.26 72.9987 11.26C88.8156 11.26 104.633 17.2798 116.676 29.3221C140.761 53.4054 140.758 92.5938 116.676 116.674ZM33.9851 72.0126C32.3167 70.4529 32.2313 67.8374 33.7896 66.1676C35.3479 64.4979 37.9441 64.3905 39.6359 65.9708C44.1112 70.1735 48.7062 66.3039 49.2156 65.8496C50.7367 64.4868 52.9888 64.4566 54.5388 65.6858C54.7219 65.829 54.8953 65.9928 55.0564 66.1731C56.5789 67.8746 56.4343 70.4887 54.7329 72.0126C51.0657 75.2957 42.0573 79.5631 33.9851 72.0126ZM112.194 66.125C113.715 67.8264 113.572 70.4405 111.871 71.9644C108.203 75.2476 99.195 79.5136 91.1228 71.9644C89.4543 70.4048 89.3704 67.7893 90.9273 66.1195C92.4842 64.4497 95.0818 64.3423 96.7736 65.9226C101.249 70.1253 105.844 66.2557 106.353 65.8015C107.873 64.4387 110.126 64.4084 111.676 65.6377C111.86 65.7808 112.032 65.9446 112.194 66.125ZM106.02 109.208C106.926 111.302 105.964 113.733 103.869 114.638C101.776 115.547 99.3478 114.582 98.442 112.487C94.4568 103.28 85.0465 97.3265 74.4593 97.3265C63.6297 97.3265 54.1602 103.273 50.3375 112.479C49.6781 114.063 48.1405 115.025 46.523 115.025C45.9957 115.025 45.4589 114.925 44.9413 114.71C42.8351 113.833 41.8371 111.416 42.7112 109.311C47.8197 97.014 60.2819 89.0712 74.4606 89.0712C88.3421 89.0698 100.731 96.9741 106.02 109.208Z" fill="#8356AA"/>
</svg>
