<svg width="22" height="22" viewBox="0 0 22 22" fill="none" xmlns="http://www.w3.org/2000/svg">
<path d="M21.0572 7.96539L14.6105 7.02848L11.7287 1.18609C11.6499 1.02613 11.5204 0.89664 11.3605 0.817929C10.9593 0.619882 10.4718 0.784922 10.2712 1.18609L7.38939 7.02848L0.942714 7.96539C0.76498 7.99078 0.60248 8.07457 0.478066 8.20152C0.327656 8.35612 0.244773 8.5641 0.24763 8.77977C0.250487 8.99545 0.338849 9.20116 0.4933 9.35172L5.15756 13.8992L4.0556 20.3205C4.02976 20.4698 4.04629 20.6235 4.10332 20.7639C4.16034 20.9044 4.25558 21.0261 4.37824 21.1151C4.50089 21.2042 4.64606 21.2572 4.79726 21.2679C4.94847 21.2787 5.09968 21.2469 5.23373 21.1761L10.9999 18.1445L16.7662 21.1761C16.9236 21.2599 17.1064 21.2879 17.2816 21.2574C17.7234 21.1812 18.0204 20.7623 17.9443 20.3205L16.8423 13.8992L21.5066 9.35172C21.6335 9.22731 21.7173 9.06481 21.7427 8.88707C21.8113 8.44273 21.5015 8.03141 21.0572 7.96539Z" fill="#8356AA"/>
</svg>
